<?xml version="1.0" encoding="UTF-8"?>
<svg id="Layer_1" data-name="Layer 1" xmlns="http://www.w3.org/2000/svg" version="1.1" viewBox="0 0 275.5 277.65">
  <defs>
    <style>
      .cls-1 {
        fill: #fff;
        font-family: ErasITC-Bold, 'Eras Bold ITC';
        font-size: 136.22px;
        font-weight: 700;
      }

      .cls-2 {
        fill: #101010;
        stroke-width: 0px;
      }

      .cls-3 {
        fill: #2d1c0f;
        stroke: #da7858;
        stroke-miterlimit: 10;
      }
    </style>
  </defs>
  <rect class="cls-2" x="-1.63" y=".53" width="277.12" height="277.12"/>
  <path class="cls-3" d="M252.91,163.37c-.22,1.06-.39,2.13-.67,3.16-.11.41-.4.91-.75,1.1-3.46,1.82-6.94,3.6-10.44,5.33-.41.21-1.02.21-1.48.1-12.47-2.94-24.93-5.88-37.39-8.87-8.76-2.1-17.51-4.27-26.27-6.4-.51-.12-1.04-.2-1.56-.19-.32,0-.9.17-.91.32-.04.36.06.85.31,1.1,1.2,1.25,2.43,2.47,3.7,3.65,10.67,9.86,21.35,19.69,32.02,29.55,5.78,5.34,11.54,10.69,17.28,16.06.38.36.58.92.82,1.41.1.19.09.44.14.66q1,4.35-1.81,7.88c-.17.21-.49.51-.68.47-1.26-.27-2.74-.29-3.71-.99-6.81-4.96-13.6-9.96-20.22-15.17-4.61-3.63-8.9-7.65-13.37-11.45-4.32-3.68-8.69-7.32-13.04-10.98-.06-.05-.11-.13-.17-.14-.52-.11-1.05-.21-1.58-.31-.05.44-.19.89-.12,1.3.07.38.34.74.57,1.08,8.59,12.85,17.21,25.68,25.71,38.6.74,1.13.74,2.77.96,4.2.28,1.82.34,3.67.67,5.48.34,1.88-.83,3.2-1.47,4.73-.01.03-.04.08-.07.08-2.23.67-4.25,2.16-6.71,1.92-1.6-.16-3.19-.5-4.77-.85-.46-.1-.97-.41-1.25-.79-9.25-12.53-17.98-25.43-26.29-38.6-3.67-5.82-7.01-11.84-10.51-17.76-.22-.37-.67-.93-.92-.89-.66.12-1.1.56-1.17,1.4-.29,3.67-.66,7.34-1.01,11.01-.58,6.14-1.16,12.28-1.73,18.42-.48,5.2-.95,10.41-1.44,15.61-.57,6.14-1.15,12.28-1.72,18.42-.15,1.65-.29,3.3-.49,4.94-.05.41-.29.82-.51,1.2-1.64,2.8-4.47,3.76-7.28,4.9-1.74.71-2.81.39-4.3-.61-2.83-1.91-4.67-4.34-5.88-7.52-.73-1.92-.9-3.61-.48-5.6,3.16-14.84,6.29-29.69,9.25-44.58,1.11-5.6,1.69-11.3,2.62-16.93.37-2.22,1.05-4.38,1.55-6.57.09-.38,0-.81-.01-1.21-.52.2-1.22.25-1.53.62-1,1.17-1.85,2.47-2.76,3.71-10.37,14.09-20.66,28.24-31.16,42.22-2.72,3.62-6.1,6.75-9.2,10.09-2.4,2.59-4.86,5.14-7.24,7.76-1.25,1.37-3.04,1.54-4.59,2.26-.17.08-.5-.1-.72-.21-1.88-.95-3.76-1.89-5.6-2.91-.32-.18-.63-.73-.61-1.09.09-1.73.27-3.45.48-5.16.05-.42.3-.85.56-1.2,3.88-5.18,7.72-10.38,11.67-15.5,9.27-12,18.55-23.99,27.91-35.92,2.85-3.64,5.98-7.06,8.94-10.62.36-.44.5-1.12.59-1.71.1-.64-.3-.68-.76-.39-.45.28-.88.57-1.33.86-19.27,12.51-38.56,25-57.8,37.56-1.51.99-3.09,1.26-4.75,1.49-2.38.32-4.77.64-7.16.9-.38.04-.9-.13-1.19-.39-1.27-1.11-2.5-2.28-3.71-3.47-.24-.23-.47-.63-.45-.94.09-1.76.34-3.52.38-5.29.04-2,1.47-3.05,2.78-3.98,10.3-7.33,20.8-14.31,31.97-20.29,10.31-5.51,20.42-11.39,30.61-17.12,1.18-.66,1.83-2.41,1.19-3.29-.2-.28-.63-.56-.96-.57-7.55-.31-15.11-.58-22.67-.86-12.44-.46-24.89-.89-37.33-1.41-6.43-.27-12.85-.64-19.26-1.09-1.86-.13-3.69-.69-5.51-1.11-.31-.07-.6-.42-.82-.7-1.25-1.6-2.43-3.26-3.71-4.83-.69-.84-.96-1.62-.76-2.75.23-1.3.77-2.11,1.81-2.98,2.23-1.87,4.59-2.02,7.31-1.71,4.56.51,9.15.7,13.73,1.02,8.29.58,16.58,1.18,24.87,1.73,4.17.28,8.34.44,12.5.75,4.65.35,9.28.83,13.93,1.25,5.43.48,10.85.95,16.28,1.44.68.06,1.06-.11,1.33-.83.29-.77-.15-1.01-.61-1.33-9.65-6.6-19.24-13.3-28.97-19.77-11.46-7.63-22.95-15.2-34.01-23.41-.69-.52-1.39-1.04-2.15-1.45-2.79-1.51-4.87-3.76-6.57-6.36-.44-.68-.56-1.6-.7-2.43-.41-2.33-.77-4.67-1.09-7.02-.05-.41.1-.97.36-1.28,1.71-1.95,3.47-3.87,5.24-5.77.26-.27.68-.6,1-.58,3.07.23,6.14.48,9.19.84.66.08,1.34.5,1.88.93,16.33,12.64,32.71,25.23,49.46,37.32,1.22.88,2.41,1.82,3.48,2.87.74.72,1.16.27,1.7-.13.58-.43.65-.88.28-1.54-2.76-4.87-5.42-9.8-8.24-14.65-8.6-14.83-17.26-29.62-25.89-44.43-.15-.26-.33-.52-.39-.81-.85-3.73-1.69-7.46-2.52-11.19-.22-.97.08-1.78.7-2.59,1.86-2.41,3.68-4.86,5.43-7.35.69-.98,1.49-1.61,2.65-1.89.67-.16,1.31-.49,1.96-.74.45,0,.9,0,1.36,0,1.96.3,3.9.69,5.87.89,1.82.18,3.31.77,4.72,2.02,1.48,1.31,2.58,2.74,3.29,4.58.85,2.2,1.86,4.35,2.83,6.51,4.32,9.55,8.5,19.17,13.04,28.61,4.13,8.6,8.63,17.03,13.04,25.5,2.93,5.64,5.88,11.26,7.21,17.55.15.73.41,1.47.8,2.1.18.3.77.38,1.19.46.1.02.39-.38.41-.6.18-2.21.29-4.43.47-6.64.38-4.76.73-9.52,1.21-14.27.74-7.37,1.64-14.72,2.35-22.09.78-8.05,1.4-16.11,2.13-24.16.12-1.38.21-2.81.66-4.1.89-2.55,2.01-5.02,3.07-7.51.17-.39.45-.8.8-1.03,2.02-1.37,4.06-2.72,6.13-4.02.3-.19.85-.22,1.18-.08,1.48.64,2.93,1.35,4.37,2.09.38.2.75.51,1,.85,1.3,1.8,2.58,3.61,3.81,5.46.24.36.37.91.31,1.34-.3,2.2-.71,4.38-1.01,6.57-1.84,13.56-4.64,26.95-7.21,40.38-1.29,6.75-2.54,13.51-3.8,20.27-.05.25.09.76.12.76.69-.05,1.54.07,2.02-.29.97-.75,1.83-1.69,2.57-2.67,10-13.19,20-26.39,31.1-38.69,4.23-4.68,8.28-9.58,13.53-13.22.49-.34,1.14-.59,1.72-.6,2.71-.06,5.42,0,8.13-.04.69-.01,1.08.22,1.45.78,2.07,3.14,4.21,6.23,6.27,9.38.26.4.37,1.06.24,1.52-.88,3.22-1.83,6.43-2.8,9.63-.16.52-.44,1.04-.77,1.47-7.62,9.89-15.29,19.76-22.89,29.66-2.66,3.46-5.35,6.91-7.73,10.56-2.46,3.77-4.59,7.77-6.82,11.69-.22.38-.36,1.1-.16,1.34.28.33.95.55,1.4.48,2-.32,3.98-.75,5.97-1.17,7.5-1.59,14.96-3.32,22.49-4.75,9.37-1.79,18.8-3.25,28.17-5.05,2.95-.57,5.59-.51,8.14,1.14.78.51,1.67.88,2.55,1.19,1.14.39,1.81,1.03,1.93,2.29.1,1.06.68,2.04.16,3.18-.89,1.99-1.63,4.04-2.51,6.03-.19.43-.69.91-1.13,1.02-5.86,1.49-11.71,3.03-17.61,4.33-11.59,2.56-23.21,4.93-34.8,7.48-6.78,1.49-13.53,3.16-20.29,4.78-.38.09-.72.39-1.08.59.38.17.74.45,1.14.5,1.75.21,3.51.39,5.28.51,6.3.43,12.6.92,18.9,1.21,4.24.19,8.51-.13,12.75.12,8.63.5,17.25,1.25,25.88,1.82,1.76.12,3.25.65,4.65,1.69,1.41,1.06,2.96,1.94,4.4,2.96.6.42,1.16.95,1.62,1.52,1.34,1.66,2.61,3.38,3.91,5.07v.9Z"/>
  <text class="cls-1" transform="translate(28.44 225.3)"><tspan x="0" y="0">&gt;_</tspan></text>
</svg>